HIERARCHY
ROOT Haolin_28_06:Solving:Hips
{
	OFFSET 0.000000 0.000000 0.000000
	CHANNELS 6 Xposition Yposition Zposition Xrotation Yrotation Zrotation
	JOINT Haolin_28_06:Solving:Spine
	{
		OFFSET 0.000000 -12.181966 2.015561
		CHANNELS 6 Xposition Yposition Zposition Xrotation Yrotation Zrotation
		JOINT Haolin_28_06:Solving:Spine1
		{
			OFFSET 0.000000 -8.890296 1.567602
			CHANNELS 6 Xposition Yposition Zposition Xrotation Yrotation Zrotation
			JOINT Haolin_28_06:Solving:Spine2
			{
				OFFSET 0.000000 -8.993092 0.786796
				CHANNELS 6 Xposition Yposition Zposition Xrotation Yrotation Zrotation
				JOINT Haolin_28_06:Solving:Spine3
				{
					OFFSET 0.000000 -9.027443 0.000000
					CHANNELS 6 Xposition Yposition Zposition Xrotation Yrotation Zrotation
					JOINT Haolin_28_06:Solving:Neck
					{
						OFFSET 0.000000 -11.606712 -1.160669
						CHANNELS 6 Xposition Yposition Zposition Xrotation Yrotation Zrotation
						JOINT Haolin_28_06:Solving:Neck1
						{
							OFFSET 0.000000 -7.471592 -0.653680
							CHANNELS 6 Xposition Yposition Zposition Xrotation Yrotation Zrotation
							JOINT Haolin_28_06:Solving:Head
							{
								OFFSET 0.000000 -7.386181 -1.302382
								CHANNELS 6 Xposition Yposition Zposition Xrotation Yrotation Zrotation
								JOINT Haolin_28_06:Solving:HeadEnd
								{
									OFFSET 0.000000 -9.728081 0.000002
									CHANNELS 6 Xposition Yposition Zposition Xrotation Yrotation Zrotation
									End Site
									{
										OFFSET 0.000000 -9.728081 0.000002
									}
								}
							}
						}
					}
					JOINT Haolin_28_06:Solving:RightShoulder
					{
						OFFSET 0.000000 -8.290508 -5.270916
						CHANNELS 6 Xposition Yposition Zposition Xrotation Yrotation Zrotation
						JOINT Haolin_28_06:Solving:RightArm
						{
							OFFSET -19.261074 -0.000008 0.000000
							CHANNELS 6 Xposition Yposition Zposition Xrotation Yrotation Zrotation
							JOINT Haolin_28_06:Solving:RightForeArm
							{
								OFFSET -30.691700 -0.000011 0.000000
								CHANNELS 6 Xposition Yposition Zposition Xrotation Yrotation Zrotation
								JOINT Haolin_28_06:Solving:RightHand
								{
									OFFSET -20.216934 -0.000008 0.000000
									CHANNELS 6 Xposition Yposition Zposition Xrotation Yrotation Zrotation
									JOINT Haolin_28_06:Solving:RightHandThumb1
									{
										OFFSET -4.948814 2.881329 -3.679893
										CHANNELS 6 Xposition Yposition Zposition Xrotation Yrotation Zrotation
										End Site
										{
											OFFSET -7.039886 -0.000004 -7.104978
										}
									}
									JOINT Haolin_28_06:Solving:RightHandMiddle1
									{
										OFFSET -13.196846 -0.000004 0.084595
										CHANNELS 6 Xposition Yposition Zposition Xrotation Yrotation Zrotation
										End Site
										{
											OFFSET -10.002037 -0.000004 0.000000
										}
									}
								}
							}
						}
					}
					JOINT Haolin_28_06:Solving:LeftShoulder
					{
						OFFSET 0.000000 -8.290508 -5.270916
						CHANNELS 6 Xposition Yposition Zposition Xrotation Yrotation Zrotation
						JOINT Haolin_28_06:Solving:LeftArm
						{
							OFFSET 19.261074 -0.000008 0.000000
							CHANNELS 6 Xposition Yposition Zposition Xrotation Yrotation Zrotation
							JOINT Haolin_28_06:Solving:LeftForeArm
							{
								OFFSET 30.691700 -0.000011 0.000000
								CHANNELS 6 Xposition Yposition Zposition Xrotation Yrotation Zrotation
								JOINT Haolin_28_06:Solving:LeftHand
								{
									OFFSET 20.216934 -0.000008 0.000000
									CHANNELS 6 Xposition Yposition Zposition Xrotation Yrotation Zrotation
									JOINT Haolin_28_06:Solving:LeftHandThumb1
									{
										OFFSET 4.948814 2.881329 -3.679893
										CHANNELS 6 Xposition Yposition Zposition Xrotation Yrotation Zrotation
										End Site
										{
											OFFSET 7.039886 -0.000004 -7.104978
										}
									}
									JOINT Haolin_28_06:Solving:LeftHandMiddle1
									{
										OFFSET 13.196846 -0.000004 0.084595
										CHANNELS 6 Xposition Yposition Zposition Xrotation Yrotation Zrotation
										End Site
										{
											OFFSET 10.002037 -0.000004 0.000000
										}
									}
								}
							}
						}
					}
				}
			}
		}
	}
	JOINT Haolin_28_06:Solving:RightUpLeg
	{
		OFFSET -10.083070 0.000000 0.000000
		CHANNELS 6 Xposition Yposition Zposition Xrotation Yrotation Zrotation
		JOINT Haolin_28_06:Solving:RightLeg
		{
			OFFSET 0.000000 47.042522 -0.000008
			CHANNELS 6 Xposition Yposition Zposition Xrotation Yrotation Zrotation
			JOINT Haolin_28_06:Solving:RightFoot
			{
				OFFSET 0.000000 38.766415 -0.000006
				CHANNELS 6 Xposition Yposition Zposition Xrotation Yrotation Zrotation
				JOINT Haolin_28_06:Solving:RightForeFoot
				{
					OFFSET 0.000000 3.531212 -0.000000
					CHANNELS 6 Xposition Yposition Zposition Xrotation Yrotation Zrotation
					JOINT Haolin_28_06:Solving:RightToeBase
					{
						OFFSET 0.000000 0.000000 -13.829352
						CHANNELS 6 Xposition Yposition Zposition Xrotation Yrotation Zrotation
						JOINT Haolin_28_06:Solving:RightToeBaseEnd
						{
							OFFSET 0.000000 0.000000 -4.034167
							CHANNELS 6 Xposition Yposition Zposition Xrotation Yrotation Zrotation
							End Site
							{
								OFFSET 0.000000 -4.034164 0.000004
							}
						}
					}
				}
			}
		}
	}
	JOINT Haolin_28_06:Solving:LeftUpLeg
	{
		OFFSET 10.083070 0.000000 0.000000
		CHANNELS 6 Xposition Yposition Zposition Xrotation Yrotation Zrotation
		JOINT Haolin_28_06:Solving:LeftLeg
		{
			OFFSET 0.000000 47.042522 -0.000008
			CHANNELS 6 Xposition Yposition Zposition Xrotation Yrotation Zrotation
			JOINT Haolin_28_06:Solving:LeftFoot
			{
				OFFSET 0.000000 38.766415 -0.000006
				CHANNELS 6 Xposition Yposition Zposition Xrotation Yrotation Zrotation
				JOINT Haolin_28_06:Solving:LeftForeFoot
				{
					OFFSET 0.000000 3.531212 -0.000000
					CHANNELS 6 Xposition Yposition Zposition Xrotation Yrotation Zrotation
					JOINT Haolin_28_06:Solving:LeftToeBase
					{
						OFFSET 0.000000 0.000000 -13.829352
						CHANNELS 6 Xposition Yposition Zposition Xrotation Yrotation Zrotation
						JOINT Haolin_28_06:Solving:LeftToeBaseEnd
						{
							OFFSET 0.000000 0.000000 -4.855067
							CHANNELS 6 Xposition Yposition Zposition Xrotation Yrotation Zrotation
							End Site
							{
								OFFSET 0.000000 -4.855064 0.000004
							}
						}
					}
				}
			}
		}
	}
}
MOTION
Frames: 5
Frame Time: 0.041667
-95.052940 -7.581810 -83.742104 169.877924 -44.458333 53.891275 -0.000006 -12.181961 2.015564 22.008931 -2.043161 -1.450824 0.000003 -8.890311 1.567582 11.529233 0.246031 -1.916686 0.000001 -8.993098 0.786793 12.190994 -1.890715 1.319395 -0.000002 -9.027450 0.000007 -3.417379 -1.298452 5.642456 -0.000005 -11.606726 -1.160668 -20.115392 4.618142 -1.303026 -0.000003 -7.471577 -0.653653 -6.636757 4.658980 6.720795 -0.000001 -7.386198 -1.302385 -1.503129 0.412052 0.501387 0.000000 -9.728111 0.000001 0.000010 -0.000001 0.000003 -0.000006 -8.290512 -5.270899 0.000001 12.617758 27.083438 -19.261068 -0.000012 -0.000003 -56.940446 -17.714937 -41.207846 -30.691706 -0.000020 -0.000001 -72.641951 -14.022869 -37.782715 -20.216934 -0.000013 0.000001 0.896699 -23.623324 2.236737 -4.948804 2.881326 -3.679879 -0.000005 -0.000000 0.000004 -13.196843 -0.000015 0.084589 -0.000001 0.000003 0.000004 -0.000007 -8.290512 -5.270896 -0.000004 -11.630933 -22.376352 19.261070 0.000005 -0.000002 -53.374172 16.550657 82.987960 30.691690 -0.000004 0.000001 -126.615656 49.589547 134.302037 20.216938 -0.000019 0.000001 -0.768597 -7.326259 -6.005526 4.948791 2.881329 -3.679879 -0.000001 0.000000 -0.000001 13.196842 0.000004 0.084606 -0.000004 0.000001 -0.000004 -10.083080 0.000012 0.000002 -92.144559 -0.817488 18.703619 -0.000003 47.042522 0.000005 49.136739 -0.000010 -0.000001 0.000005 38.766434 -0.000010 2.785902 6.794645 -3.270634 -0.000002 3.531219 -0.000002 -0.000002 0.000006 0.000000 0.000003 0.000013 -13.829351 -12.521871 0.000000 0.000001 -0.000000 -0.000000 -4.034172 -0.000000 0.000011 0.000000 10.083067 0.000010 -0.000001 -75.195383 -20.272389 -0.405059 -0.000001 47.042526 0.000004 40.706497 -0.000002 -0.000002 -0.000008 38.766430 0.000007 -0.014056 -12.759897 9.990435 -0.000001 3.531212 -0.000015 0.000001 -0.000000 0.000000 0.000001 -0.000003 -13.829356 5.605772 0.000001 -0.000000 -0.000006 0.000001 -4.855053 0.000001 0.000001 -0.000000 
-95.070641 -7.529691 -83.790604 169.976607 -44.375114 54.102779 -0.000000 -12.181963 2.015556 22.023520 -2.036561 -1.432643 -0.000001 -8.890289 1.567585 11.560829 0.245886 -1.900550 0.000002 -8.993111 0.786782 12.336795 -1.820400 1.318877 -0.000000 -9.027449 0.000019 -3.445086 -1.281329 5.592592 0.000001 -11.606711 -1.160687 -20.214645 4.595464 -1.202038 -0.000007 -7.471593 -0.653678 -6.253208 4.673219 6.695189 -0.000003 -7.386188 -1.302370 -1.441824 0.409365 0.511540 0.000006 -9.728096 0.000004 0.000000 -0.000001 -0.000002 -0.000006 -8.290512 -5.270942 -0.000002 12.603936 26.981365 -19.261076 -0.000016 -0.000014 -57.314863 -16.910211 -41.483229 -30.691692 -0.000020 0.000001 -72.005056 -14.918226 -38.398784 -20.216934 -0.000007 0.000010 0.847022 -23.506943 2.122776 -4.948800 2.881318 -3.679874 -0.000002 -0.000003 -0.000001 -13.196838 -0.000020 0.084592 0.000001 0.000000 -0.000000 -0.000006 -8.290501 -5.270950 -0.000005 -11.572688 -22.368202 19.261084 -0.000002 0.000005 -53.442327 16.448166 83.168037 30.691698 -0.000016 0.000001 -127.626114 49.949798 135.199565 20.216923 -0.000012 -0.000005 -0.824932 -7.467261 -6.322188 4.948773 2.881323 -3.679898 -0.000004 -0.000005 0.000005 13.196829 -0.000011 0.084592 -0.000005 -0.000003 -0.000002 -10.083063 -0.000002 -0.000013 -92.113222 -0.744766 18.640583 0.000000 47.042526 0.000014 48.990522 -0.000004 -0.000001 0.000012 38.766422 -0.000001 2.822574 6.890799 -3.314932 0.000015 3.531212 -0.000001 -0.000001 0.000003 -0.000001 0.000030 -0.000003 -13.829365 -12.510220 0.000001 0.000002 0.000009 -0.000000 -4.034164 -0.000000 0.000006 0.000001 10.083068 -0.000001 0.000004 -75.231173 -20.022013 -0.396482 0.000001 47.042519 -0.000015 40.527057 -0.000001 -0.000003 -0.000003 38.766407 -0.000002 0.060915 -12.855178 10.058744 -0.000003 3.531212 0.000012 0.000001 0.000000 -0.000001 -0.000000 0.000014 -13.829336 5.607367 0.000001 0.000000 -0.000000 -0.000007 -4.855058 0.000001 0.000000 0.000000 
-95.093575 -7.472783 -83.843201 170.082871 -44.299145 54.324401 0.000003 -12.181981 2.015581 22.029479 -2.021055 -1.407468 -0.000002 -8.890297 1.567621 11.602121 0.243723 -1.876234 0.000001 -8.993091 0.786806 12.498562 -1.767896 1.312487 0.000005 -9.027444 0.000002 -3.488373 -1.264110 5.517437 -0.000005 -11.606705 -1.160656 -20.344265 4.551001 -1.105782 0.000006 -7.471603 -0.653676 -5.862012 4.695125 6.697431 0.000002 -7.386174 -1.302407 -1.378621 0.408231 0.523830 -0.000000 -9.728088 -0.000016 0.000001 0.000001 -0.000002 -0.000004 -8.290516 -5.270915 -0.000006 12.622984 26.880700 -19.261076 -0.000004 0.000007 -57.728991 -16.117250 -41.769824 -30.691702 -0.000012 0.000004 -71.332938 -15.896488 -39.032933 -20.216908 -0.000015 0.000011 0.946721 -23.307961 2.391489 -4.948836 2.881310 -3.679873 0.000003 -0.000003 0.000001 -13.196867 -0.000020 0.084599 0.000000 0.000003 0.000002 -0.000008 -8.290504 -5.270912 -0.000004 -11.647008 -22.410575 19.261072 -0.000009 -0.000008 -53.836979 15.876653 83.667878 30.691696 -0.000025 0.000004 -127.809218 49.958968 135.384909 20.216919 -0.000018 -0.000003 -0.846521 -8.118346 -5.973098 4.948807 2.881324 -3.679880 -0.000001 -0.000010 -0.000001 13.196843 -0.000013 0.084588 -0.000008 -0.000000 -0.000004 -10.083070 -0.000007 0.000029 -92.083477 -0.631881 18.595188 -0.000008 47.042507 0.000010 48.831382 -0.000003 -0.000004 0.000017 38.766422 -0.000022 2.851926 6.967434 -3.333188 0.000012 3.531212 -0.000009 -0.000001 0.000002 -0.000001 -0.000004 0.000018 -13.829354 -12.483716 -0.000002 -0.000001 0.000011 -0.000000 -4.034163 -0.000001 0.000000 -0.000000 10.083074 -0.000023 0.000015 -75.259457 -19.837407 -0.408997 -0.000000 47.042534 -0.000006 40.331990 -0.000003 -0.000002 -0.000005 38.766426 -0.000002 0.160713 -12.869132 10.097674 0.000004 3.531204 0.000003 0.000002 -0.000000 -0.000000 0.000002 0.000004 -13.829354 5.560988 -0.000000 -0.000001 -0.000005 0.000001 -4.855065 0.000002 -0.000000 -0.000001 
-95.112762 -7.414211 -83.903664 170.179026 -44.238398 54.526449 -0.000003 -12.181974 2.015545 22.077832 -2.013149 -1.382387 0.000005 -8.890306 1.567621 11.630742 0.241571 -1.848711 -0.000005 -8.993085 0.786780 12.598344 -1.713363 1.304018 0.000002 -9.027441 -0.000005 -3.516557 -1.249959 5.433871 -0.000000 -11.606702 -1.160650 -20.313302 4.561565 -1.100201 -0.000005 -7.471593 -0.653678 -5.658724 4.688793 6.816187 0.000004 -7.386193 -1.302387 -1.366915 0.402966 0.563344 -0.000003 -9.728096 -0.000006 -0.000001 0.000001 -0.000002 -0.000006 -8.290504 -5.270898 -0.000003 12.639849 26.801017 -19.261078 -0.000013 -0.000003 -58.113094 -15.329540 -42.079201 -30.691696 -0.000017 -0.000015 -70.956383 -16.687073 -39.756011 -20.216934 -0.000019 0.000014 0.979105 -23.105164 2.493700 -4.948812 2.881330 -3.679872 0.000000 0.000005 0.000004 -13.196846 -0.000008 0.084592 -0.000003 0.000005 0.000001 -0.000005 -8.290501 -5.270897 -0.000006 -11.618711 -22.371091 19.261078 0.000002 0.000007 -54.004468 15.709368 83.898424 30.691694 -0.000028 -0.000008 -128.602108 50.345997 136.038940 20.216923 -0.000017 0.000004 -0.897801 -8.260773 -6.224496 4.948779 2.881328 -3.679877 -0.000001 0.000000 0.000003 13.196802 0.000000 0.084596 -0.000003 -0.000001 0.000002 -10.083061 -0.000027 -0.000012 -92.024846 -0.525642 18.555665 0.000003 47.042534 0.000014 48.654217 -0.000003 -0.000005 -0.000007 38.766422 0.000003 2.867818 7.040863 -3.341595 -0.000014 3.531196 -0.000002 -0.000002 0.000003 0.000000 -0.000003 0.000014 -13.829356 -12.438538 -0.000009 -0.000002 -0.000008 0.000000 -4.034165 0.000001 -0.000002 0.000000 10.083070 -0.000001 -0.000012 -75.261315 -19.709284 -0.430498 -0.000000 47.042496 0.000000 40.131033 -0.000002 -0.000002 -0.000005 38.766430 -0.000020 0.284603 -12.829713 10.118984 0.000003 3.531212 0.000009 -0.000000 -0.000001 0.000001 0.000002 0.000005 -13.829341 5.504877 0.000000 0.000000 0.000002 0.000001 -4.855067 0.000003 -0.000001 -0.000001 
-95.133286 -7.358687 -83.966118 170.257847 -44.165974 54.712076 -0.000004 -12.181974 2.015563 22.105166 -1.994819 -1.362392 0.000006 -8.890290 1.567616 11.658238 0.237125 -1.827377 -0.000006 -8.993084 0.786768 12.712118 -1.685390 1.318627 0.000000 -9.027437 -0.000011 -3.554396 -1.244743 5.355764 0.000006 -11.606713 -1.160656 -20.339643 4.555193 -1.016309 -0.000002 -7.471597 -0.653676 -5.385450 4.679039 6.893492 0.000006 -7.386177 -1.302391 -1.325795 0.400918 0.580942 -0.000005 -9.728088 -0.000011 0.000003 -0.000001 0.000000 -0.000001 -8.290501 -5.270918 -0.000006 12.666167 26.740435 -19.261066 0.000001 0.000009 -58.408718 -14.657692 -42.413545 -30.691698 -0.000028 -0.000003 -71.427338 -16.905920 -40.874956 -20.216942 -0.000015 0.000010 1.272802 -23.130664 3.237162 -4.948812 2.881319 -3.679877 0.000001 -0.000000 0.000003 -13.196842 -0.000012 0.084587 -0.000001 0.000003 0.000004 -0.000006 -8.290497 -5.270916 -0.000007 -11.551028 -22.309587 19.261080 0.000014 0.000016 -54.108752 15.603413 84.029625 30.691702 -0.000024 0.000008 -129.408206 50.719161 136.708613 20.216919 -0.000016 0.000008 -0.960501 -8.359199 -6.578411 4.948791 2.881314 -3.679889 0.000002 0.000000 -0.000001 13.196833 -0.000010 0.084595 -0.000003 -0.000001 0.000003 -10.083065 -0.000015 0.000009 -91.981099 -0.389643 18.513904 0.000014 47.042526 0.000004 48.476916 -0.000001 -0.000001 0.000016 38.766407 -0.000024 2.900362 7.038378 -3.322210 -0.000014 3.531212 0.000001 -0.000000 0.000007 -0.000001 -0.000009 0.000002 -13.829350 -12.343800 -0.000008 -0.000001 -0.000017 0.000000 -4.034164 0.000001 0.000001 -0.000000 10.083075 -0.000012 0.000003 -75.266547 -19.605549 -0.471822 0.000002 47.042519 0.000004 39.922521 -0.000001 -0.000001 -0.000003 38.766430 -0.000019 0.397699 -12.776378 10.141114 -0.000003 3.531204 -0.000005 0.000001 0.000001 -0.000001 0.000006 -0.000011 -13.829355 5.454795 0.000000 0.000000 0.000003 0.000000 -4.855064 0.000000 0.000000 0.000000 
